<svg xmlns="http://www.w3.org/2000/svg" viewBox="0 0 136.675 225.15" fill="currentColor"><path d="M20.15 46.325 38.675 0H39.775L64.65 63.75Q66.475 68.325 68.775 70.1Q71.075 71.875 75.3 72.05V72.85Q68.75 72.65 61.638 72.65Q54.525 72.65 48.225 72.85V72.05Q51.075 71.85 52.825 71.238Q54.575 70.625 55.15 68.875Q55.725 67.125 54.425 63.75L48.35 48.25Q47.725 46.625 46.575 45.838Q45.425 45.05 43.675 45.05H25.8Q24.325 45.05 23.288 45.438Q22.25 45.825 21.513 46.7Q20.775 47.575 20.175 49.15L18.75 53.125Q16.05 60.4 15.925 64.5Q15.8 68.6 17.988 70.275Q20.175 71.95 24.85 72.05V72.85Q17.2 72.65 12.9 72.65Q8.6 72.65 2 72.85V72.05Q4.725 71.85 7.312 69.625Q9.9 67.4 13.062 61.838Q16.225 56.275 20.15 46.325ZM44.925 39.15 34.775 12.425 24.35 38.625Q23.325 41.15 24.288 42.6Q25.25 44.05 27.9 44.05H41.775Q44.05 44.05 44.912 42.738Q45.775 41.425 44.925 39.15ZM79.825 55.75V19.85Q79.825 12.575 79.088 9.238Q78.35 5.9 76.637 4.763Q74.925 3.625 71 3.475V2.675Q74.925 2.85 82.725 2.85H102.8Q116.425 2.85 122.125 7.113Q127.825 11.375 127.825 18.35Q127.825 23.925 124.5 28.25Q121.175 32.575 115.325 34.963Q109.475 37.35 102.15 37.35H93.5Q91.475 37.35 90.387 38.463Q89.3 39.575 89.3 41.55V55.75Q89.3 63.025 90.037 66.363Q90.775 69.7 92.488 70.838Q94.2 71.975 98.125 72.125V72.925Q94.2 72.75 86.4 72.75H82.725Q74.925 72.75 71 72.925V72.125Q74.925 71.975 76.637 70.838Q78.35 69.7 79.088 66.363Q79.825 63.025 79.825 55.75ZM114.95 65.1 101.475 36.95 105.65 36.975 111.125 35.125 125.4 64.65Q126.725 67.45 128.363 69.013Q130 70.575 131.938 71.225Q133.875 71.875 136.675 72.05V72.85Q131.025 72.725 122.913 72.725Q114.8 72.725 107.95 72.85V72.05Q112.525 71.825 114.363 71.288Q116.2 70.75 116.275 69.4Q116.35 68.05 114.95 65.1ZM117.8 19.175V18.75Q117.8 10.975 112.675 7.363Q107.55 3.75 97.85 3.75Q93.85 3.75 91.987 4.3Q90.125 4.85 89.7 5.663Q89.275 6.475 89.3 7.775Q89.3 7.875 89.3 8.05V32.15Q89.3 34.15 90.4 35.25Q91.5 36.35 93.5 36.35H101.125Q107.225 36.35 110.925 33.688Q114.625 31.025 116.175 27.2Q117.725 23.375 117.8 19.175ZM25.175 131.25V84.95Q25.175 81.725 23.5 80.438Q21.825 79.15 18.675 79.15Q13.45 79.15 10.513 80.563Q7.575 81.975 5.475 86.575Q3.375 91.175 2.15 100.6H1.35L2.6 77.95Q12.4 78.35 29.95 78.35Q47.4 78.35 57.2 77.95L58.45 98.35H57.65Q56.425 90.05 54.325 85.9Q52.225 81.75 49.25 80.45Q46.275 79.15 41.125 79.15Q37.925 79.15 36.275 80.425Q34.625 81.7 34.625 84.95V131.25Q34.625 138.525 35.362 141.863Q36.1 145.2 37.812 146.338Q39.525 147.475 43.45 147.625V148.425Q39.525 148.25 31.725 148.25H28.075Q20.275 148.25 16.35 148.425V147.625Q20.275 147.475 21.988 146.338Q23.7 145.2 24.438 141.863Q25.175 138.525 25.175 131.25ZM66.375 131.25V95.45Q66.375 88.175 65.638 84.838Q64.9 81.5 63.188 80.363Q61.475 79.225 57.55 79.075V78.275Q61.475 78.45 69.275 78.45H72.95Q80.75 78.45 84.675 78.275V79.075Q80.75 79.225 79.037 80.363Q77.325 81.5 76.588 84.838Q75.85 88.175 75.85 95.45V131.25Q75.85 138.525 76.588 141.863Q77.325 145.2 79.037 146.338Q80.75 147.475 84.675 147.625V148.425Q80.75 148.25 72.95 148.25H69.275Q61.475 148.25 57.55 148.425V147.625Q61.475 147.475 63.188 146.338Q64.9 145.2 65.638 141.863Q66.375 138.525 66.375 131.25ZM97.475 145.675Q95.85 144.975 94.25 144.45Q92.65 143.925 91.575 143.925Q89.825 143.925 88.975 144.788Q88.125 145.65 87.375 148.45H86.575Q87.025 144.425 87.038 139.125Q87.05 133.825 86.55 127.85Q86.35 124.875 86.15 122.9H86.95Q87.8 130.175 91.613 135.963Q95.425 141.75 100.913 144.95Q106.4 148.15 112.225 148.15Q116.75 148.15 120.588 146.25Q124.425 144.35 126.713 141.075Q129 137.8 129 133.825Q129 128.9 125.913 125.388Q122.825 121.875 116.3 118.625Q115.675 118.325 115.05 118.025L105.525 113.525L105 113.275Q99.55 110.7 96.038 108.225Q92.525 105.75 90.4 102.15Q88.275 98.55 88.275 93.4Q88.275 87.425 91.45 83.7Q94.625 79.975 99.263 78.363Q103.9 76.75 108.475 76.75Q112.2 76.75 115.025 77.363Q117.85 77.975 121.55 79.15Q123.025 79.625 124.375 79.988Q125.725 80.35 126.725 80.35Q129.25 80.35 130.3 78.6Q131.35 76.85 131.55 74.65H132.35Q132.25 74.95 132.25 75.65Q131.45 81.25 131.35 86.913Q131.25 92.575 131.85 98.8H131.05Q130.225 93.2 127.138 88.363Q124.05 83.525 119.213 80.638Q114.375 77.75 108.75 77.75Q104.4 77.75 101.288 79.45Q98.175 81.15 96.513 83.9Q94.85 86.65 94.85 89.75Q94.85 94.825 99.188 98.55Q103.525 102.275 110 105.175L119.5 109.525Q119.9 109.65 120.175 109.8Q125.15 112.125 128.438 114.788Q131.725 117.45 133.663 121.075Q135.6 124.7 135.6 129.55Q135.6 135.1 132.438 139.588Q129.275 144.075 124 146.613Q118.725 149.15 112.575 149.15Q108.15 149.15 104.775 148.238Q101.4 147.325 97.475 145.675ZM18.15 196.825 36.675 150.5H37.775L62.65 214.25Q64.475 218.825 66.775 220.6Q69.075 222.375 73.3 222.55V223.35Q66.75 223.15 59.638 223.15Q52.525 223.15 46.225 223.35V222.55Q49.075 222.35 50.825 221.738Q52.575 221.125 53.15 219.375Q53.725 217.625 52.425 214.25L46.35 198.75Q45.725 197.125 44.575 196.338Q43.425 195.55 41.675 195.55H23.8Q22.325 195.55 21.288 195.938Q20.25 196.325 19.513 197.2Q18.775 198.075 18.175 199.65L16.75 203.625Q14.05 210.9 13.925 215Q13.8 219.1 15.988 220.775Q18.175 222.45 22.85 222.55V223.35Q15.2 223.15 10.9 223.15Q6.6 223.15 0 223.35V222.55Q2.725 222.35 5.312 220.125Q7.9 217.9 11.062 212.338Q14.225 206.775 18.15 196.825ZM42.925 189.65 32.775 162.925 22.35 189.125Q21.325 191.65 22.288 193.1Q23.25 194.55 25.9 194.55H39.775Q42.05 194.55 42.912 193.238Q43.775 191.925 42.925 189.65ZM75.4 153.35H87.05L125.5 208.575L125.4 225.15ZM77.825 173.05V170.35Q77.825 163.075 77.088 159.738Q76.35 156.4 74.637 155.263Q72.925 154.125 69 153.975V153.175Q72.925 153.35 80.725 153.35H78.825V172.95Q78.825 196.85 79.738 206.6Q80.65 216.35 83.412 219.4Q86.175 222.45 92.975 222.55V223.35Q88.375 223.25 83.7 223.25Q79.25 223.25 76.138 223.25Q73.025 223.25 69.825 223.35V222.55Q72.925 222.4 74.562 219.163Q76.2 215.925 77.013 205.45Q77.825 194.975 77.825 173.05ZM111.5 154.15V153.35Q116.525 153.35 120.475 153.45Q124.9 153.45 128.062 153.45Q131.225 153.45 134.625 153.35V154.15Q131.025 154.15 129.375 157.338Q127.725 160.525 127.062 170.725Q126.4 180.925 126.4 203.65V225.15H125.4V203.75Q125.4 180.4 124.513 170.688Q123.625 160.975 120.875 157.638Q118.125 154.3 111.5 154.15Z"/></svg>
